<svg width="9" height="10" viewBox="0 0 9 10" fill="none" xmlns="http://www.w3.org/2000/svg">
<path d="M7.18782 9.375H8.25509C8.7493 9.375 9 9.07383 9 8.47605V1.84104C9 1.24325 8.7493 0.9375 8.25509 0.9375H7.18782C6.69721 0.9375 6.44291 1.24325 6.44291 1.84104V8.47605C6.44291 9.07383 6.69721 9.375 7.18782 9.375ZM3.9646 9.375H5.03185C5.52608 9.375 5.78036 9.07383 5.78036 8.47605V3.17352C5.78036 2.57571 5.52608 2.26998 5.03185 2.26998H3.9646C3.47395 2.26998 3.22325 2.57571 3.22325 3.17352V8.47605C3.22325 9.07383 3.47395 9.375 3.9646 9.375ZM0.744927 9.375H1.81218C2.30641 9.375 2.55711 9.07383 2.55711 8.47605V4.50144C2.55711 3.90363 2.30641 3.5979 1.81218 3.5979H0.744927C0.254282 3.5979 0 3.90363 0 4.50144V8.47605C0 9.07383 0.254282 9.375 0.744927 9.375Z" fill="white"/>
</svg>
