<svg width="8" height="10" viewBox="0 0 8 10" fill="none" xmlns="http://www.w3.org/2000/svg">
<path d="M0.523401 3.98052C0.592093 4.09289 0.693296 4.08699 0.758349 3.97461C1.61142 2.49003 2.73919 1.70932 4.00071 1.70932C5.26945 1.70932 6.40085 2.49594 7.25028 3.98052C7.31172 4.08106 7.40938 4.08106 7.47444 3.96868L7.95518 3.18204C8.013 3.0815 8.013 2.95139 7.96599 2.85673C7.14909 1.21249 5.61285 0 4.00071 0C2.38858 0 0.852334 1.21249 0.0354161 2.85673C-0.0151853 2.95139 -0.011561 3.0815 0.0462736 3.18204L0.523401 3.98052ZM1.96927 6.35225C2.04157 6.47646 2.13555 6.46462 2.20423 6.33451C2.62352 5.57151 3.30307 5.02148 4.00071 5.03332C4.70557 5.02148 5.38151 5.58928 5.80443 6.35225C5.8731 6.47053 5.96346 6.47053 6.03216 6.34634L6.57074 5.47691C6.62856 5.38225 6.6358 5.25806 6.58158 5.1575C6.05745 4.0988 5.0851 3.31809 4.00071 3.31809C2.9163 3.31809 1.94397 4.10473 1.41984 5.1575C1.36563 5.25806 1.37285 5.37634 1.43068 5.47691L1.96927 6.35225ZM4.00071 9.4574C4.07662 9.4574 4.1453 9.39234 4.27904 9.1794L5.12486 7.84864C5.17909 7.76584 5.18993 7.63573 5.14295 7.53516C4.91522 7.05609 4.4887 6.64205 4.00071 6.64205C3.50188 6.64205 3.06812 7.07383 2.84402 7.57064C2.81148 7.65344 2.82233 7.76584 2.87655 7.84864L3.72238 9.1794C3.85612 9.39234 3.9248 9.4574 4.00071 9.4574Z" fill="white"/>
</svg>
