<svg width="15" height="11" viewBox="0 0 15 11" fill="none" xmlns="http://www.w3.org/2000/svg">
<path d="M2.53481 10.3125H10.9415C11.7532 10.3125 12.4367 10.2081 12.9209 9.54234C13.4051 8.8766 13.4715 7.94976 13.4715 6.83369V3.48537C13.4715 2.36926 13.4051 1.43591 12.9209 0.776715C12.432 0.11097 11.7532 0 10.9415 0H2.52056C1.7231 0 1.03955 0.11097 0.555375 0.776715C0.0711964 1.44242 0 2.36926 0 3.46577V6.83369C0 7.94976 0.0711964 8.88311 0.555375 9.54234C1.03955 10.2081 1.7231 10.3125 2.53481 10.3125ZM2.4019 9.26166C1.91298 9.26166 1.40033 9.17028 1.11552 8.7787C0.825937 8.38053 0.76425 7.68867 0.76425 7.0164V3.32217C0.76425 2.63687 0.825938 1.93197 1.11075 1.54036C1.40033 1.14222 1.91772 1.05084 2.41615 1.05084H11.0743C11.5586 1.05084 12.076 1.14874 12.3608 1.54036C12.6503 1.93849 12.7073 2.63035 12.7073 3.30261V7.0164C12.7073 7.68867 12.6455 8.38053 12.3608 8.7787C12.076 9.17684 11.5586 9.26166 11.0743 9.26166H2.4019ZM2.30695 8.37401H11.1693C11.5206 8.37401 11.7152 8.30874 11.867 8.1064C12.019 7.89753 12.0617 7.62344 12.0617 7.14697V3.17209C12.0617 2.68909 12.0142 2.42149 11.867 2.21262C11.7152 2.00376 11.5206 1.94501 11.1693 1.94501H2.30695C1.95571 1.94501 1.76108 2.00376 1.60918 2.21262C1.45728 2.42149 1.41455 2.68909 1.41455 3.17209V7.14697C1.41455 7.62344 1.45728 7.89753 1.60918 8.1064C1.76108 8.30874 1.95571 8.37401 2.30695 8.37401ZM14.1219 6.80754C14.4968 6.77491 15 6.11572 15 5.1171C15 4.125 14.4968 3.46577 14.1219 3.43314V6.80754Z" fill="white"/>
</svg>
