<svg width="11" height="9" viewBox="0 0 11 9" fill="none" xmlns="http://www.w3.org/2000/svg">
<path d="M0.413056 1.61918H10.5816C10.8098 1.61918 11 1.34728 11 1.0012C11 0.655125 10.8098 0.375 10.5816 0.375H0.413056C0.184789 0.375 0 0.655125 0 1.0012C0 1.34728 0.184789 1.61918 0.413056 1.61918ZM0.413056 5.21173H10.5816C10.8098 5.21173 11 4.93979 11 4.59375C11 4.23941 10.8098 3.95928 10.5816 3.95928H0.413056C0.184789 3.95928 0 4.23941 0 4.59375C0 4.93979 0.184789 5.21173 0.413056 5.21173ZM0.413056 8.8125H10.5816C10.8098 8.8125 11 8.53234 11 8.17804C11 7.83196 10.8098 7.56006 10.5816 7.56006H0.413056C0.184789 7.56006 0 7.83196 0 8.17804C0 8.53234 0.184789 8.8125 0.413056 8.8125Z" fill="white"/>
</svg>
