<svg width="64" height="66" viewBox="0 0 64 66" fill="none" xmlns="http://www.w3.org/2000/svg">
<path d="M35.7001 33.0002L54.4501 9.95177C54.7644 9.56874 54.5001 8.98682 54.0144 8.98682H48.3144C47.9787 8.98682 47.6573 9.1415 47.4358 9.40668L31.9715 28.4185L16.5073 9.40668C16.293 9.1415 15.9715 8.98682 15.6287 8.98682H9.92869C9.44298 8.98682 9.17869 9.56874 9.49298 9.95177L28.243 33.0002L9.49298 56.0486C9.42257 56.134 9.37741 56.2384 9.36284 56.3495C9.34827 56.4606 9.36491 56.5736 9.41079 56.6752C9.45666 56.7768 9.52985 56.8627 9.62165 56.9227C9.71345 56.9827 9.82001 57.0142 9.92869 57.0136H15.6287C15.9644 57.0136 16.2858 56.8589 16.5073 56.5937L31.9715 37.5819L47.4358 56.5937C47.6501 56.8589 47.9715 57.0136 48.3144 57.0136H54.0144C54.5001 57.0136 54.7644 56.4317 54.4501 56.0486L35.7001 33.0002Z" fill="white"/>
</svg>
