<svg width="211" height="204" viewBox="0 0 211 204" fill="none" xmlns="http://www.w3.org/2000/svg">
<path d="M211 102C211 158.333 163.766 204 105.5 204C47.234 204 0 158.333 0 102C0 45.667 47.234 0 105.5 0C163.766 0 211 45.667 211 102Z" fill="url(#paint0_linear_2354_24)" fill-opacity="0.95"/>
<path d="M211 102C211 158.333 163.766 204 105.5 204C47.234 204 0 158.333 0 102C0 45.667 47.234 0 105.5 0C163.766 0 211 45.667 211 102Z" fill="url(#paint1_linear_2354_24)" fill-opacity="0.95"/>
<defs>
<linearGradient id="paint0_linear_2354_24" x1="105.5" y1="0" x2="105.5" y2="204" gradientUnits="userSpaceOnUse">
<stop offset="0.0700232" stop-color="#86157B" stop-opacity="0.95"/>
<stop offset="0.533565" stop-color="#B829A9" stop-opacity="0.83"/>
<stop offset="1" stop-color="#F3AAEC" stop-opacity="0.69"/>
</linearGradient>
<linearGradient id="paint1_linear_2354_24" x1="105.5" y1="0" x2="105.5" y2="204" gradientUnits="userSpaceOnUse">
<stop offset="0.0700232" stop-color="#86157B" stop-opacity="0.95"/>
<stop offset="0.533565" stop-color="#B829A9" stop-opacity="0.83"/>
<stop offset="1" stop-color="#F3AAEC" stop-opacity="0.69"/>
</linearGradient>
</defs>
</svg>
