<svg width="8" height="21" viewBox="0 0 8 21" fill="none" xmlns="http://www.w3.org/2000/svg">
<path d="M3.5 4.5C3.1 12.1 2 14 1.5 14L0.5 3.5M0.5 3.5V16L5.5 19.5C6.16667 20 7.1 20.6 5.5 19C3.9 17.4 3.83333 14.6667 4 13.5C4.38977 8.43294 4.49469 10.8671 4.4998 12.8454M0.5 3.5L4 4.5V4L4.5 3L4 3.5L3.23086 3.75148L5 7V6.5V6M4.4998 12.8454C4.49993 12.8973 4.5 12.9489 4.5 13C4.3332 11.5636 4.09964 9.52169 4.4998 12.8454ZM4.4998 12.8454C5.29996 16.5691 4.83333 8.83333 4.5 4.5L4 5.5H2.5L2 6M2 6C1.83333 4.66667 1.5 2.8 1.5 6C1.5 10 1.5 2.5 1.5 6.5C1.5 9.7 2 16 1.5 8C1.33333 8.66667 1.1 10.4 1.5 12C1.9 13.6 2 13 2 12.5C2.16667 13 2.5 13.4 2.5 11C2.5 8 1 5.5 2 6ZM2.5 6C2.9 6.8 2.66667 7.33333 2.5 7.5V8V7L4 7.5V6.5V6C4 5.16667 4 4.5 4 8.5C4 13.5 4 9.81869 4 9C4 8.34504 3.33333 10.7271 3 12L3.23086 12.8454C3.32058 12.7303 3.5 12.4 3.5 12C3.5 11.6 3.5 11.5 3.5 11.5V11L2.5 15.5L3.23086 16.9003L3.5 17.5C3.66667 17.3333 4 17.1 4 17.5V18L2 15.5V16M2 16H1.5L1 15.5C1 15 1 15.5 1 15C1 14.6 1 14.1667 1 14L2 14.5M2 16L2.5 14M2 14.5C2 14.1 2 14 2 14C1.83333 14.3333 1.6 14.9 2 14.5ZM2 16.5H2.5L4 15.5M4 15.5L3.5 16L4 16.5V15.5ZM5 17.5C4.83333 17.3333 4.5 16.5 4.5 14.5L5 15C5 15.6667 5 17.1 5 17.5ZM5 17.5V17M4.5 14L3.23086 14.7909L3 15.5L3.23086 13.5H3.5L2.5 4L7.5 0.5L6 2.5L5.5 3V3.5H5V4V4.5V5M5 5L5.5 4L6 4.5C5.2 6.5 5.33333 6 5.5 5.5L5 5ZM0 3.5H2L2.5 3L3.23086 3.04833L3.5 3V2.5H6.5" stroke="#BF4AB3"/>
</svg>
